<?xml version="1.0" encoding="UTF-8"?>
<svg width="84px" height="20px" viewBox="0 0 84 20" version="1.1" xmlns="http://www.w3.org/2000/svg" xmlns:xlink="http://www.w3.org/1999/xlink">
    <!-- Generator: Sketch 51.2 (57519) - http://www.bohemiancoding.com/sketch -->
    <title>Group</title>
    <desc>Created with Sketch.</desc>
    <defs></defs>
    <g id="Page-1" stroke="none" stroke-width="1" fill="none" fill-rule="evenodd">
        <g id="Group" transform="translate(0.000000, -3.000000)">
            <rect id="Rectangle-2" x="0" y="0" width="84" height="29"></rect>
            <path d="M43.35,9.744 C39.901,9.744 37.097,12.568 37.097,16.008 C37.0951425,17.6681524 37.7531284,19.2609889 38.926096,20.435832 C40.0990636,21.6106752 41.6908468,22.2712051 43.351,22.272 C46.8,22.272 49.604,19.447 49.604,16.008 C49.604,12.568 46.8,9.744 43.351,9.744 L43.35,9.744 Z M43.35,20.203 C41.0386617,20.196382 39.1692324,18.3193461 39.172,16.008 C39.172,13.715 41.052,11.813 43.351,11.813 C45.651,11.813 47.529,13.687 47.529,16.008 C47.5317676,18.3193461 45.6623383,20.196382 43.351,20.203 L43.35,20.203 Z M53.245,3.48 L52.217,3.48 C51.9246798,3.48110258 51.6884464,3.71867821 51.689,4.011 L51.689,21.741 C51.689,22.021 51.911,22.272 52.217,22.272 L53.245,22.272 C53.3855648,22.271735 53.5202672,22.2156416 53.619474,22.1160598 C53.7186808,22.0164779 53.7742655,21.8815648 53.774,21.741 L53.774,4.01 C53.746,3.73 53.524,3.479 53.245,3.479 L53.245,3.48 Z M12.592,10.014 L11.556,10.014 C11.41517,10.0137345 11.2800025,10.0694246 11.1802331,10.1688189 C11.0804637,10.2682133 11.024265,10.40317 11.024,10.544 L11.024,11.354 C9.75990141,10.2061695 8.07832857,9.63057091 6.376,9.763 C3.323,9.986 0.859,12.471 0.636,15.515 C0.356,19.173 3.267,22.272 6.852,22.272 C8.448,22.272 9.904,21.658 11.024,20.68 L11.024,21.378 C11.024,21.658 11.248,21.909 11.556,21.909 L12.592,21.909 C12.7329109,21.9095317 12.8682329,21.8539274 12.9680602,21.7544755 C13.0678874,21.6550235 13.124001,21.5199119 13.124,21.379 L13.124,10.516 C13.124,10.236 12.872,10.013 12.592,10.013 L12.592,10.014 Z M6.88,20.178 C4.57174603,20.1724835 2.70423431,18.2982589 2.707,15.99 C2.707,13.7 4.583,11.801 6.88,11.801 C9.18825408,11.8070676 11.0553189,13.6817403 11.052,15.99 C11.024,18.307 9.176,20.178 6.88,20.178 Z M67.806,10.014 L66.769,10.014 C66.6282622,10.0134687 66.493092,10.0689359 66.3932936,10.1681715 C66.2934953,10.2674071 66.2372645,10.4022614 66.237,10.543 L66.237,11.351 C64.9719205,10.2050898 63.2907753,9.63072262 61.589,9.763 C58.565,10.013 56.101,12.465 55.877,15.53 C55.597,19.18 58.509,22.272 62.093,22.272 C63.689,22.272 65.145,21.659 66.266,20.684 L66.266,21.38 C66.266,21.66 66.49,21.91 66.798,21.91 L67.834,21.91 C67.9749109,21.9105317 68.1102329,21.8549274 68.2100602,21.7554755 C68.3098874,21.6560235 68.366001,21.5209119 68.366,21.38 L68.366,10.543 C68.338,10.264 68.086,10.013 67.806,10.013 L67.806,10.014 Z M62.093,20.183 C59.7871168,20.1796888 57.9198938,18.3088853 57.921,16.003 C57.921,13.691 59.797,11.853 62.093,11.853 C64.3984928,11.8557591 66.2660017,13.7255055 66.266,16.031 C66.237,18.316 64.389,20.183 62.093,20.183 Z M72.025,21.915 L73.061,21.915 C73.341,21.915 73.593,21.695 73.593,21.395 L73.593,20.708 C74.685,21.696 76.169,22.272 77.765,22.272 C81.377,22.272 84.261,19.254 83.981,15.633 C83.757,12.615 81.293,10.201 78.241,9.982 C76.449,9.845 74.797,10.448 73.593,11.545 L73.593,4.001 C73.5916813,3.86131903 73.5348563,3.72789906 73.4350561,3.63016245 C73.335256,3.53242585 73.200678,3.47840039 73.061,3.48 L72.025,3.48 C71.745,3.48 71.492,3.7 71.492,4.001 L71.492,21.394 C71.52,21.696 71.744,21.915 72.025,21.915 Z M77.765,12.039 C80.061,12.039 81.937,13.877 81.937,16.154 C81.937,18.404 80.061,20.269 77.765,20.269 C75.469,20.269 73.593,18.431 73.593,16.154 C73.593,13.877 75.469,12.039 77.765,12.039 Z M35.492,9.746 C34.1695011,9.84791152 32.9133429,10.3664094 31.904,11.227 L31.904,10.46 C31.8952937,10.1742583 31.6567506,9.94958918 31.371,9.958 L30.333,9.958 C30.053,9.958 29.801,10.169 29.801,10.46 L29.801,22 C29.801,22.264 30.025,22.503 30.333,22.503 L31.371,22.503 C31.651,22.503 31.904,22.291 31.904,22 L31.904,15.646 C31.904,13.609 33.53,11.942 35.604,11.704 C35.860978,11.6771943 36.0554257,11.4593609 36.053,11.201 L36.053,10.196 C36.081,9.958 35.8,9.72 35.492,9.746 Z M21.462,9.744 C18.013,9.744 15.209,12.567 15.209,16.033 C15.209,19.331 17.845,22.125 21.154,22.265 C23.004,22.349 24.688,21.65 25.865,20.449 C25.9755261,20.3355083 26.0350124,20.1818655 26.0297284,20.0235353 C26.0244444,19.865205 25.9548468,19.7158702 25.837,19.61 L25.108,18.995 C24.884,18.8 24.575,18.827 24.351,19.023 C23.5742453,19.7670531 22.5375821,20.1782735 21.462,20.169 C19.527,20.169 17.901,18.827 17.424,17.039 L27.155,17.039 C27.464,17.039 27.716,16.787 27.716,16.479 L27.716,16.005 C27.716,12.567 24.912,9.744 21.462,9.744 Z M17.424,14.97 C17.901,13.182 19.527,11.84 21.462,11.84 C23.397,11.84 25.024,13.182 25.501,14.97 L17.424,14.97 Z" id="Shape" fill="#565B6D" fill-rule="nonzero"></path>
        </g>
    </g>
</svg>