<?xml version="1.0" encoding="UTF-8"?>
<svg width="116px" height="23px" viewBox="0 0 116 23" version="1.1" xmlns="http://www.w3.org/2000/svg" xmlns:xlink="http://www.w3.org/1999/xlink">
    <!-- Generator: Sketch 51.2 (57519) - http://www.bohemiancoding.com/sketch -->
    <title>Group</title>
    <desc>Created with Sketch.</desc>
    <defs></defs>
    <g id="Page-1" stroke="none" stroke-width="1" fill="none" fill-rule="evenodd">
        <g id="Group" transform="translate(0.000000, -4.000000)">
            <rect id="Rectangle-2" x="0" y="0" width="115" height="29"></rect>
            <path d="M7.606,14.768 L12.896,14.768 C12.191,17.182 9.957,19.008 7.312,19.008 C4.137,19.008 1.492,16.417 1.492,13.178 C1.492,9.998 4.079,7.348 7.312,7.348 C9.722,7.348 11.78,8.821 12.662,10.941 L14.249,10.941 C13.2817507,7.92564574 10.4786902,5.87941556 7.312,5.877 C3.314,5.877 0.022,9.174 0.022,13.178 C0.022,17.182 3.314,20.48 7.312,20.48 C9.604,20.48 11.721,19.302 12.955,17.653 L12.955,20.185 L14.307,20.185 L14.307,13.295 L7.606,13.295 L7.606,14.768 Z M16.777,6.348 L18.247,6.348 L18.247,20.127 L16.777,20.127 L16.777,6.348 Z M59.632,6.348 L61.102,6.348 L61.102,20.127 L59.632,20.127 L59.632,6.348 Z M25.83,19.184 C23.596,19.184 21.773,17.241 21.773,15.062 C21.773,12.825 23.596,10.941 25.83,10.941 C28.064,10.941 29.886,12.825 29.886,15.062 C29.827,17.241 28.005,19.184 25.83,19.184 Z M25.83,9.468 C24.3626897,9.46746584 22.9554548,10.0507323 21.9187542,11.0891213 C20.8820537,12.1275103 20.301078,13.5356925 20.304,15.003 C20.301078,16.4703075 20.8820537,17.8784897 21.9187542,18.9168787 C22.9554548,19.9552677 24.3626897,20.5385342 25.83,20.538 C27.2973103,20.5385342 28.7045452,19.9552677 29.7412458,18.9168787 C30.7779463,17.8784897 31.358922,16.4703075 31.356,15.003 C31.296,11.942 28.828,9.468 25.83,9.468 Z M38.528,19.184 C36.294,19.184 34.471,17.241 34.471,15.062 C34.471,12.825 36.294,10.941 38.528,10.941 C40.762,10.941 42.584,12.825 42.584,15.062 C42.525,17.241 40.762,19.184 38.528,19.184 Z M38.586,9.41 C37.0030498,9.39778316 35.4960813,10.0877294 34.471,11.294 L34.471,6.348 L33.001,6.348 L33.001,20.126 L34.471,20.126 L34.471,18.772 C35.519203,19.9399331 37.0166858,20.6040658 38.586,20.597 C41.643,20.597 44.112,18.065 44.112,15.003 C44.112,11.883 41.643,9.41 38.586,9.41 Z M51.578,19.184 C49.344,19.184 47.522,17.241 47.522,15.062 C47.522,12.825 49.344,10.941 51.578,10.941 C53.812,10.941 55.635,12.825 55.635,15.062 C55.635,17.241 53.812,19.184 51.578,19.184 Z M55.635,11.294 C54.635,10.116 53.107,9.41 51.461,9.41 C48.345,9.41 45.876,11.942 45.876,15.003 C45.8741423,16.4856305 46.4616762,17.9082015 47.5092108,18.9574241 C48.5567453,20.0066467 49.9783684,20.5964704 51.461,20.597 C53.107,20.597 54.635,19.891 55.635,18.713 L55.635,20.126 L57.105,20.126 L57.105,10.057 L55.635,10.057 L55.635,11.294 Z M99.314,4.934 L101.901,4.934 L101.901,7.348 L99.314,7.348 L99.314,4.934 Z M66.275,6.348 L63.924,6.348 L63.924,20.126 L71.624,20.126 L71.624,17.948 L66.275,17.948 L66.275,6.348 Z M99.314,9.292 L101.901,9.292 L101.901,20.127 L99.314,20.127 L99.314,9.292 Z M78.209,18.242 C76.504,18.242 75.093,16.77 75.093,14.886 C75.093,13.06 76.504,11.529 78.209,11.529 C79.914,11.529 81.325,13.001 81.325,14.886 C81.325,16.77 79.914,18.242 78.209,18.242 Z M78.209,9.232 C75.0893721,9.2353121 72.5627897,11.7663712 72.565,14.886 C72.5638942,18.004848 75.0901535,20.5346881 78.209,20.538 C81.3274558,20.5341366 83.8531063,18.004458 83.852,14.886 C83.8536584,11.7671516 81.3278465,9.23686362 78.209,9.233 L78.209,9.232 Z M112.6,16.417 C112.07,17.535 111.012,18.242 109.836,18.242 C108.131,18.242 106.721,16.712 106.721,14.886 C106.721,12.884 108.131,11.529 109.836,11.529 C111.012,11.529 112.011,12.236 112.54,13.237 L115.245,13.237 C114.539,10.941 112.365,9.233 109.836,9.233 C106.717154,9.23686362 104.191342,11.7671516 104.193,14.886 C104.191894,18.004458 106.717544,20.5341366 109.836,20.538 C112.391068,20.5328896 114.62825,18.8223678 115.303,16.358 L112.6,16.358 L112.6,16.417 Z M90.73,23.895 C89.555,23.895 88.497,23.306 87.791,22.364 L85.498,23.483 C86.557,25.19 88.379,26.309 90.73,26.309 C93.729,26.309 96.198,23.895 96.433,21.009 L93.905,21.009 C93.67,22.659 92.376,23.895 90.73,23.895 Z M90.848,18.3 C89.143,18.3 87.732,16.829 87.732,14.945 C87.732,13.119 89.143,11.588 90.848,11.588 C92.553,11.588 93.964,13.06 93.964,14.945 C93.964,16.829 92.612,18.301 90.848,18.301 L90.848,18.3 Z M94.198,10.41 C93.258,9.763 92.141,9.35 90.907,9.35 C87.7877629,9.35331203 85.261342,11.8837616 85.263,15.003 C85.261342,18.1222384 87.7877629,20.652688 90.907,20.656 C94.023,20.656 96.55,18.124 96.55,15.062 L96.55,9.292 L94.2,9.292 L94.2,10.411 L94.198,10.41 Z" id="Shape" fill="#565B6D" fill-rule="nonzero"></path>
        </g>
    </g>
</svg>