<?xml version="1.0" encoding="UTF-8"?>
<svg width="116px" height="23px" viewBox="0 0 116 23" version="1.1" xmlns="http://www.w3.org/2000/svg" xmlns:xlink="http://www.w3.org/1999/xlink">
    <!-- Generator: Sketch 51.3 (57544) - http://www.bohemiancoding.com/sketch -->
    <title>globant-logo-dark (2)</title>
    <desc>Created with Sketch.</desc>
    <defs></defs>
    <g id="Page-1" stroke="none" stroke-width="1" fill="none" fill-rule="evenodd">
        <g id="globant-logo-dark-(2)" fill="#565B6D" fill-rule="nonzero">
            <path d="M9.1872,20.88 C3.5264,20.88 0,16.0544 0,10.8576 C0,5.3824 3.1552,0.928 9.1872,0.928 C13.6416,0.928 17.0752,3.5264 17.3536,7.3312 L13.456,7.3312 C13.2704,5.568 11.4144,4.176 9.28,4.176 C6.1248,4.176 4.0832,6.5888 4.0832,11.0432 C4.0832,14.1056 5.6608,17.5392 9.28,17.5392 C12.6208,17.5392 13.8272,15.8688 13.8272,13.2704 L9.6512,13.2704 L9.6512,10.208 L17.4464,10.208 L17.4464,13.3632 C17.3536,17.7248 15.4048,20.88 9.1872,20.88 Z" id="Shape"></path>
            <polygon id="Shape" points="19.5808 20.2304 19.5808 1.392 23.2 1.392 23.2 20.2304"></polygon>
            <path d="M24.9632,12.2496 C25.2416,9.1872 28.0256,6.4032 31.088,6.1248 C35.9136,5.6608 39.0688,8.6304 39.0688,13.3632 C39.0688,17.7248 36.3776,20.6016 32.016,20.6016 C27.1904,20.6016 24.4992,17.0752 24.9632,12.2496 Z M35.3568,13.3632 C35.3568,10.5792 34.2432,9.1872 32.016,9.1872 C29.7888,9.1872 28.6752,10.5792 28.6752,13.3632 C28.6752,16.1472 29.7888,17.5392 32.016,17.5392 C34.2432,17.5392 35.3568,16.1472 35.3568,13.3632 Z" id="Shape"></path>
            <path d="M40.7392,20.2304 L40.7392,1.392 L44.3584,1.392 L44.3584,8.2592 C45.3792,6.7744 46.7712,6.1248 48.4416,6.1248 C51.968,6.1248 54.1024,9.0944 54.1024,13.2704 C54.1024,17.9104 51.5968,20.6944 48.1632,20.6944 C46.4928,20.6944 45.1936,20.0448 44.3584,18.6528 L44.3584,20.3232 L40.7392,20.3232 L40.7392,20.2304 Z M50.3904,13.456 C50.3904,10.672 49.3696,9.1872 47.2352,9.1872 C45.1936,9.1872 44.1728,10.672 44.1728,13.6416 C44.1728,15.9616 45.5648,17.632 47.2352,17.632 C49.0912,17.632 50.3904,15.8688 50.3904,13.456 Z" id="Shape"></path>
            <path d="M64.8672,20.2304 C64.7744,19.8592 64.6816,19.3952 64.6816,19.024 C63.8464,19.952 62.3616,20.6016 60.5056,20.6016 C57.3504,20.6016 55.8656,19.024 55.8656,16.7968 C55.8656,12.8064 58.5568,12.3424 62.176,11.8784 C64.032,11.6 64.496,11.2288 64.496,10.3008 C64.496,9.3728 63.568,8.9088 62.176,8.9088 C60.5056,8.9088 59.856,9.744 59.6704,10.9504 L56.2368,10.9504 C56.3296,8.0736 57.9072,6.1248 62.2688,6.1248 C66.6304,6.1248 68.1152,8.0736 68.1152,11.6 L68.1152,20.3232 L64.8672,20.3232 L64.8672,20.2304 Z M64.6816,13.456 C64.3104,13.8272 63.6608,14.0128 62.3616,14.2912 C60.32,14.6624 59.5776,15.312 59.5776,16.4256 C59.5776,17.4464 60.2272,18.0032 61.3408,18.0032 C63.1968,18.0032 64.5888,16.6112 64.6816,15.0336 L64.6816,13.456 Z" id="Shape"></path>
            <path d="M79.6224,20.2304 L79.6224,11.8784 C79.6224,9.744 78.9728,9.1872 77.3024,9.1872 C75.3536,9.1872 74.5184,10.208 74.5184,12.3424 L74.5184,20.2304 L70.8992,20.2304 L70.8992,6.4032 L74.24,6.4032 L74.24,8.4448 C75.0752,6.8672 76.4672,6.032 78.6944,6.032 C81.2928,6.032 83.2416,7.6096 83.2416,10.672 L83.2416,20.2304 L79.6224,20.2304 Z" id="Shape"></path>
            <path d="M93.8208,15.0336 C93.728,16.5184 93.0784,17.4464 91.6864,17.4464 C90.2016,17.4464 89.552,16.4256 89.552,14.6624 L89.552,9.0016 L95.2128,9.0016 L95.2128,6.1248 L89.552,6.1248 L89.552,2.6912 L85.9328,2.6912 L85.9328,15.0336 C85.9328,18.0032 87.5104,20.6016 91.5936,20.6016 C95.4912,20.6016 97.1616,18.0032 97.1616,15.0336 L93.8208,15.0336 Z" id="Shape"></path>
            <path d="M101.616,0.3712 C101.2448,0.0928 100.688,0.2784 100.4096,0.6496 C100.3168,0.8352 100.224,1.1136 100.3168,1.2992 L101.9872,3.712 C105.1424,8.4448 105.1424,14.6624 101.9872,19.3952 L100.3168,21.808 C100.224,22.272 100.4096,22.736 100.8736,22.8288 C101.0592,22.9216 101.3376,22.8288 101.5232,22.736 L115.1648,12.3424 C115.6288,11.9712 115.7216,11.3216 115.3504,10.8576 C115.2576,10.7648 115.2576,10.672 115.1648,10.672 L101.616,0.3712 Z" id="Shape"></path>
        </g>
    </g>
</svg>