<?xml version="1.0" encoding="UTF-8"?>
<svg width="72px" height="29px" viewBox="0 0 72 29" version="1.1" xmlns="http://www.w3.org/2000/svg" xmlns:xlink="http://www.w3.org/1999/xlink">
    <!-- Generator: Sketch 51.2 (57519) - http://www.bohemiancoding.com/sketch -->
    <title>Untitled</title>
    <desc>Created with Sketch.</desc>
    <defs></defs>
    <g id="Page-1" stroke="none" stroke-width="1" fill="none" fill-rule="evenodd">
        <g id="ibmcloud" fill="#565B6D" fill-rule="nonzero">
            <polygon id="path1242" points="0 1.9374762 13.7807396 1.9374762 13.7807396 0.069047619 0 0.069047619"></polygon>
            <polygon id="path1244" points="0 5.79585715 13.7807396 5.79585715 13.7807396 3.95780952 0 3.95780952"></polygon>
            <polygon id="path1246" points="3.93735417 7.81619048 9.8581875 7.81619048 9.8581875 9.6542381 3.93735417 9.6542381"></polygon>
            <polygon id="path1248" points="3.93735417 11.6745714 9.8581875 11.6745714 9.8581875 13.512619 3.93735417 13.512619"></polygon>
            <polygon id="path1250" points="3.93735417 15.517762 9.8581875 15.517762 9.8581875 17.371 3.93735417 17.371"></polygon>
            <polygon id="path1252" points="3.93735417 19.3761428 9.8581875 19.3761428 9.8581875 21.229381 3.93735417 21.229381"></polygon>
            <polygon id="path1254" points="0 25.0725715 13.7807396 25.0725715 13.7807396 23.2345238 0 23.2345238"></polygon>
            <polygon id="path1256" points="0 28.9309524 13.7807396 28.9309524 13.7807396 27.0929048 0 27.0929048"></polygon>
            <path d="M15.7494167,3.95780952 L37.0052083,3.95780952 C37.2626968,4.54981673 37.4658702,5.16515932 37.6120937,5.79585715 L15.7494167,5.79585715 L15.7494167,3.95780952" id="path1266"></path>
            <polygon id="path1268" points="19.6867708 7.81619048 25.6076042 7.81619048 25.6076042 9.6542381 19.6867708 9.6542381"></polygon>
            <path d="M31.4840313,7.81619048 L37.7897188,7.81619048 C37.7674172,8.43709966 37.678058,9.05355306 37.5232813,9.6542381 L31.4840313,9.6542381 L31.4840313,7.81619048" id="path1272"></path>
            <path d="M19.6867708,15.517762 L34.8589063,15.517762 C35.4794657,16.0585312 36.0270292,16.6817638 36.4871355,17.371 L19.6867708,17.371 L19.6867708,15.517762" id="path1276"></path>
            <polygon id="path1278" points="19.6867708 19.3761428 25.6076042 19.3761428 25.6076042 21.229381 19.6867708 21.229381"></polygon>
            <path d="M31.4840313,19.3761428 L37.478875,19.3761428 C37.6600264,19.9787542 37.7742339,20.6004455 37.819323,21.229381 L31.4840313,21.229381 L31.4840313,19.3761428" id="path1282"></path>
            <path d="M15.7494167,23.2345238 L37.5824895,23.2345238 C37.4845916,23.8743398 37.2898121,24.4945124 37.0052083,25.0725715 L15.7494167,25.0725715 L15.7494167,23.2345238" id="path1286"></path>
            <path d="M15.7494167,27.0929048 L35.525,27.0929048 C33.8685645,28.4901337 31.7375227,29.1516887 29.6041667,28.9309525 L15.7494167,28.9309525 L15.7494167,27.0929048" id="path1290"></path>
            <polygon id="path1294" points="39.3735417 0.069047619 50.623125 0.069047619 51.2152083 1.90709524 39.3735417 1.90709524"></polygon>
            <polygon id="path1298" points="39.3735417 3.95780952 51.8072917 3.95780952 52.399375 5.79585715 39.3735417 5.79585715"></polygon>
            <polygon id="path1302" points="43.2960938 7.81619048 53.124677 7.81619048 53.7167605 9.6542381 43.355302 9.6542381"></polygon>
            <polygon id="path1306" points="55.8778645 11.6745714 66.9202188 11.6745714 66.9202188 13.512619 60.9993855 13.512619 60.9993855 11.8872381 60.4517083 13.512619 55.2857812 13.512619"></polygon>
            <polygon id="path1310" points="54.9601355 13.512619 49.749802 13.512619 49.216927 11.8872381 49.216927 13.512619 43.2960938 13.512619 43.2960938 11.6745714 54.368052 11.6745714"></polygon>
            <polygon id="path1312" points="43.2960938 15.517762 49.216927 15.517762 49.216927 17.371 43.2960938 17.371"></polygon>
            <polygon id="path1314" points="43.2960938 19.3761428 49.216927 19.3761428 49.216927 21.229381 43.2960938 21.229381"></polygon>
            <polygon id="path1316" points="39.3735417 23.2345238 49.202125 23.2345238 49.202125 25.0725715 39.3735417 25.0725715"></polygon>
            <polygon id="path1318" points="39.3735417 27.0929048 49.202125 27.0929048 49.202125 28.9309524 39.3735417 28.9309524"></polygon>
            <polygon id="path1322" points="59.6227917 0.069047619 70.857573 0.069047619 70.857573 1.9374762 59.0159063 1.9374762"></polygon>
            <polygon id="path1326" points="58.3646145 3.95780952 70.857573 3.95780952 70.857573 5.79585715 57.728125 5.79585715"></polygon>
            <polygon id="path1330" points="57.1212395 7.81619048 66.9202188 7.81619048 66.9202188 9.6542381 56.5587605 9.6542381"></polygon>
            <polygon id="path1332" points="61.0289895 15.517762 66.949823 15.517762 66.949823 17.371 61.0289895 17.371"></polygon>
            <polygon id="path1334" points="61.0289895 19.3761428 66.949823 19.3761428 66.949823 21.229381 61.0289895 21.229381"></polygon>
            <polygon id="path1336" points="61.0289895 23.2345238 70.872375 23.2345238 70.872375 25.0725715 61.0289895 25.0725715"></polygon>
            <polygon id="path1338" points="61.0289895 27.0929048 70.872375 27.0929048 70.872375 28.9309524 61.0289895 28.9309524"></polygon>
            <polygon id="path1342" points="50.4158958 15.517762 59.8152188 15.517762 59.2083333 17.371 51.0227813 17.371"></polygon>
            <polygon id="path1346" points="51.688875 19.3761428 58.5422395 19.3761428 57.9353542 21.229381 52.2957605 21.229381"></polygon>
            <polygon id="path1350" points="52.9618542 23.2345238 57.2692605 23.2345238 56.662375 25.0725715 53.5687395 25.0725715"></polygon>
            <polygon id="path1354" points="54.2348333 27.0929048 56.0110833 27.0929048 55.3893958 28.9309524 54.8417188 28.9309524"></polygon>
            <path d="M19.6867708,13.512619 L34.8589063,13.512619 C35.5147966,12.9735535 36.1060753,12.356562 36.6203542,11.6745714 L19.6867708,11.6745714 L19.6867708,13.512619" id="path1358"></path>
            <path d="M15.7494167,1.9374762 L35.525,1.9374762 C33.8685645,0.540247197 31.7375227,-0.121307744 29.6041667,0.0994285715 L15.7494167,0.0994285715 L15.7494167,1.9374762" id="path1362"></path>
        </g>
    </g>
</svg>