<?xml version="1.0" encoding="UTF-8"?>
<svg width="106px" height="29px" viewBox="0 0 106 29" version="1.1" xmlns="http://www.w3.org/2000/svg" xmlns:xlink="http://www.w3.org/1999/xlink">
    <!-- Generator: Sketch 51.2 (57519) - http://www.bohemiancoding.com/sketch -->
    <title>Group</title>
    <desc>Created with Sketch.</desc>
    <defs></defs>
    <g id="Page-1" stroke="none" stroke-width="1" fill="none" fill-rule="evenodd">
        <g id="Group">
            <rect id="Rectangle-2" x="0" y="0" width="105" height="29"></rect>
            <path d="M39.096,13.587 L39.096,14.348 C39.096,21.938 31.607,28.085 19.78,28.085 C8.024,28.085 0.465,21.938 0.465,14.347 L0.468,13.587 C0.468,6.432 9.115,0.599 19.782,0.599 C30.448,0.599 39.096,6.432 39.096,13.587 Z M19.786,25.794 C30.042,25.794 38.356,20.325 38.356,13.58 C38.356,6.835 30.042,1.367 19.786,1.367 C9.529,1.367 1.214,6.835 1.214,13.58 C1.214,20.325 9.529,25.794 19.785,25.794 L19.786,25.794 Z" id="Shape" fill="#565B6D" fill-rule="nonzero"></path>
            <path d="M18.357,21.844 C17.5357076,21.8377799 16.8674824,21.1810605 16.847,20.36 C16.844,20.289 16.837,20.1 16.681,20.1 C16.617,20.1 16.561,20.14 16.497,20.199 C16.317,20.369 16.09,20.544 15.755,20.544 C15.5863112,20.5401816 15.4200743,20.5027868 15.266,20.434 C14.404,20.075 14.392,19.466 14.428,19.222 C14.437,19.157 14.44,19.089 14.396,19.036 L14.343,18.987 L14.289,18.987 C14.245,18.987 14.2,19.005 14.139,19.049 C13.889,19.229 13.651,19.317 13.407,19.317 C13.274,19.317 13.137,19.29 12.999,19.235 C11.864,18.781 11.953,17.679 12.009,17.348 C12.017,17.28 12,17.228 11.959,17.194 L11.879,17.126 L11.804,17.199 C11.583,17.419 11.294,17.539 10.989,17.539 C10.339,17.539 9.81,16.995 9.811,16.326 C9.811,15.658 10.341,15.116 10.991,15.116 C11.578,15.116 12.079,15.57 12.154,16.174 L12.194,16.499 L12.368,16.223 C12.388,16.192 12.864,15.451 13.74,15.452 C13.906,15.452 14.078,15.48 14.252,15.534 C14.949,15.754 15.067,16.404 15.086,16.675 C15.098,16.833 15.208,16.841 15.229,16.841 C15.289,16.841 15.334,16.801 15.366,16.768 C15.498,16.626 15.784,16.391 16.233,16.391 C16.438,16.392 16.657,16.442 16.883,16.542 C17.993,17.032 17.489,18.481 17.483,18.496 C17.388,18.736 17.384,18.842 17.474,18.904 L17.517,18.925 L17.55,18.925 C17.6,18.925 17.662,18.903 17.765,18.866 C17.915,18.813 18.144,18.733 18.357,18.733 C19.193,18.742 19.872,19.441 19.871,20.29 C19.871,21.147 19.191,21.844 18.357,21.844 Z M30.112,14.859 C28.279,13.215 24.045,9.43 22.898,8.545 C22.244,8.038 21.796,7.772 21.404,7.651 C21.166848,7.57431037 20.9192422,7.53484187 20.67,7.534 C20.378,7.534 20.065,7.588 19.738,7.694 C18.997,7.936 18.258,8.539 17.544,9.124 L17.507,9.154 C16.842,9.697 16.154,10.259 15.634,10.378 C15.407,10.431 15.174,10.458 14.941,10.458 C14.357,10.458 13.834,10.285 13.638,10.028 C13.605,9.985 13.626,9.916 13.702,9.817 L13.712,9.804 L15.324,8.017 C16.586,6.72 17.778,5.494 20.524,5.43 C20.569,5.428 20.615,5.427 20.661,5.427 C22.369,5.429 24.077,6.215 24.269,6.306 C25.871,7.109 27.524,7.517 29.186,7.519 C30.919,7.519 32.706,7.079 34.586,6.189 C34.375,6.007 34.156,5.831 33.932,5.658 C32.282,6.393 30.708,6.765 29.191,6.765 C27.641,6.763 26.092,6.381 24.589,5.626 C24.509,5.587 22.624,4.673 20.661,4.672 L20.506,4.674 C18.201,4.73 16.903,5.571 16.029,6.309 C15.18,6.329 14.447,6.54 13.794,6.728 C13.213,6.894 12.71,7.038 12.22,7.038 C12.018,7.038 11.655,7.019 11.623,7.018 C11.059,7 8.22,6.284 5.961,5.405 C5.731,5.573 5.509,5.745 5.292,5.923 C7.652,6.917 10.523,7.686 11.429,7.747 C11.681,7.763 11.95,7.792 12.219,7.793 C12.819,7.793 13.417,7.621 13.996,7.453 C14.337,7.355 14.716,7.248 15.112,7.17 C15.006,7.277 14.9,7.385 14.795,7.494 L13.157,9.316 C13.027,9.449 12.748,9.806 12.932,10.246 C13.006,10.423 13.154,10.593 13.362,10.737 C13.753,11.007 14.452,11.19 15.102,11.19 C15.3350687,11.1918934 15.5675863,11.1670646 15.795,11.116 C16.481,10.958 17.201,10.368 17.965,9.745 C18.572,9.248 19.435,8.617 20.096,8.433 C20.281,8.381 20.508,8.348 20.69,8.348 C20.745,8.349 20.796,8.351 20.844,8.358 C21.281,8.415 21.704,8.568 22.457,9.15 C23.801,10.188 29.75,15.537 29.808,15.59 C29.812,15.593 30.192,15.93 30.165,16.489 C30.151,16.801 29.983,17.078 29.69,17.269 C29.436,17.436 29.174,17.519 28.91,17.519 C28.512,17.519 28.238,17.328 28.22,17.315 C28.198,17.296 26.16,15.375 25.41,14.73 C25.29,14.628 25.175,14.536 25.058,14.536 C24.997111,14.5351308 24.9393471,14.5629019 24.902,14.611 C24.784,14.761 24.916,14.968 25.072,15.104 L27.452,17.564 C27.456,17.567 27.749,17.85 27.782,18.227 C27.8,18.635 27.61,18.977 27.216,19.242 C26.935,19.432 26.651,19.529 26.372,19.529 C26.1294423,19.5285811 25.8927057,19.4546663 25.693,19.317 L25.351,18.971 C24.728,18.339 24.083,17.687 23.611,17.281 C23.496,17.184 23.373,17.093 23.256,17.093 C23.1990235,17.0923097 23.1444577,17.1159549 23.106,17.158 C23.053,17.22 23.015,17.33 23.149,17.514 C23.204,17.589 23.269,17.651 23.269,17.651 L25.007,19.658 C25.021,19.676 25.365,20.095 25.047,20.514 L24.985,20.594 C24.9343364,20.650609 24.8802339,20.7040435 24.823,20.754 C24.527,21.004 24.131,21.03 23.974,21.03 C23.89,21.03 23.809,21.023 23.739,21.01 C23.569,20.978 23.452,20.93 23.397,20.861 L23.376,20.839 C23.281,20.738 22.405,19.819 21.681,19.197 C21.585,19.115 21.466,19.011 21.343,19.011 C21.2825871,19.0105683 21.2250902,19.0369363 21.186,19.083 C21.043,19.245 21.258,19.486 21.349,19.575 L22.831,21.255 C22.8183702,21.2919816 22.7994228,21.326493 22.775,21.357 C22.722,21.432 22.542,21.617 22.005,21.687 C21.9396532,21.6951621 21.8738544,21.6991702 21.808,21.699 C21.254,21.699 20.662,21.422 20.358,21.256 C20.496,20.955 20.568,20.623 20.568,20.29 C20.568,19.037 19.578,18.017 18.359,18.016 C18.332,18.016 18.305,18.016 18.279,18.018 C18.319,17.445 18.239,16.361 17.159,15.884 C16.8687905,15.750073 16.5535984,15.6788566 16.234,15.675 C15.997,15.675 15.77,15.717 15.556,15.801 C15.335005,15.3549144 14.9457658,15.0149597 14.474,14.856 C14.2195031,14.7631127 13.9509127,14.7147394 13.68,14.713 C13.23,14.713 12.815,14.85 12.446,15.12 C12.0976473,14.6686181 11.5611542,14.4023996 10.991,14.398 C10.498,14.398 10.023,14.601 9.671,14.959 C9.211,14.597 7.381,13.403 2.484,12.259 C2.11004675,12.1619085 1.73828898,12.0565493 1.369,11.943 C1.3135113,12.2160635 1.27179193,12.4917451 1.244,12.769 C1.244,12.769 2.147,12.991 2.324,13.033 C7.327,14.175 8.98,15.363 9.259,15.587 C9.16426505,15.8222314 9.11538726,16.073409 9.115,16.327 C9.114,17.389 9.955,18.254 10.989,18.255 C11.105,18.255 11.22,18.245 11.333,18.224 C11.488,19.005 11.986,19.598 12.747,19.903 C12.969,19.99 13.194,20.035 13.415,20.035 C13.557,20.035 13.701,20.017 13.841,19.981 C13.981,20.347 14.298,20.804 15.004,21.099 C15.253,21.202 15.5,21.255 15.741,21.255 C15.938,21.255 16.13,21.22 16.313,21.151 C16.6415659,21.9944364 17.4508561,22.5525813 18.356,22.56 C18.9566227,22.5585761 19.5299202,22.3088442 19.94,21.87 C20.297,22.074 21.05,22.444 21.811,22.444 C21.91,22.444 22.002,22.437 22.095,22.426 C22.85,22.327 23.202,22.024 23.364,21.787 C23.393362,21.7457747 23.4194422,21.7023078 23.442,21.657 C23.621,21.71 23.817,21.753 24.042,21.753 C24.454,21.753 24.851,21.609 25.25,21.309 C25.644,21.018 25.924,20.599 25.964,20.242 L25.966,20.227 C26.099,20.255 26.235,20.269 26.371,20.269 C26.795,20.269 27.214,20.133 27.613,19.864 C28.383,19.344 28.517,18.666 28.505,18.222 C28.64,18.252 28.777,18.266 28.914,18.266 C29.314,18.266 29.705,18.142 30.078,17.898 C30.556,17.584 30.844,17.103 30.888,16.544 C30.918,16.164 30.826,15.781 30.63,15.451 C31.922,14.879 34.872,13.773 38.347,12.967 C38.327,12.69 38.287,12.417 38.239,12.145 C34.034,13.104 30.897,14.499 30.112,14.859 Z M102.48,9.124 C102.142,9.585 101.659,9.816 101.026,9.816 C100.394,9.816 99.908,9.586 99.566,9.124 C99.226,8.663 99.056,8.006 99.056,7.155 C99.056,6.305 99.226,5.65 99.566,5.192 C99.908,4.732 100.394,4.504 101.026,4.504 C101.659,4.504 102.142,4.732 102.481,5.192 C102.818,5.65 102.988,6.306 102.988,7.155 C102.988,8.006 102.818,8.663 102.481,9.124 L102.48,9.124 Z M104.208,3.974 C103.511,3.074 102.453,2.627 101.032,2.627 C99.614,2.627 98.555,3.075 97.859,3.974 C97.161,4.87 96.812,5.931 96.812,7.155 C96.812,8.401 97.161,9.466 97.859,10.352 C98.555,11.236 99.614,11.678 101.032,11.678 C102.452,11.678 103.512,11.236 104.208,10.352 C104.906,9.466 105.254,8.402 105.254,7.155 C105.254,5.931 104.906,4.87 104.208,3.974 Z M85.292,8.076 C85.278,8.82 85.07,9.334 84.671,9.615 C84.2911088,9.89082677 83.8334644,10.0389397 83.364,10.038 C83.064,10.038 82.811,9.952 82.603,9.783 C82.395,9.613 82.291,9.339 82.291,8.958 C82.291,8.531 82.461,8.217 82.802,8.013 C83.005,7.893 83.337,7.791 83.798,7.71 L84.292,7.615 C84.538,7.568 84.732,7.516 84.872,7.462 C85.015,7.408 85.154,7.337 85.292,7.248 L85.292,8.076 Z M86.39,3.222 C85.683,2.853 84.874,2.667 83.964,2.667 C82.564,2.667 81.576,3.043 81.001,3.793 C80.64,4.273 80.437,4.884 80.389,5.63 L82.481,5.63 C82.532,5.3 82.634,5.04 82.79,4.848 C83.005,4.588 83.371,4.458 83.89,4.458 C84.353,4.458 84.704,4.523 84.943,4.658 C85.181,4.789 85.301,5.031 85.301,5.379 C85.301,5.666 85.146,5.877 84.834,6.013 C84.66,6.091 84.372,6.156 83.967,6.208 L83.226,6.301 C82.384,6.411 81.744,6.594 81.311,6.85 C80.52,7.319 80.124,8.076 80.124,9.123 C80.124,9.93 80.37,10.554 80.863,10.994 C81.353,11.434 81.978,11.62 82.732,11.655 C87.462,11.872 87.408,9.093 87.452,8.515 L87.452,5.317 C87.452,4.291 87.097,3.593 86.39,3.222 Z M75.607,4.573 C76.148,4.573 76.545,4.745 76.802,5.088 C76.977,5.341 77.087,5.628 77.13,5.946 L79.463,5.946 C79.335,4.736 78.923,3.891 78.228,3.412 C77.53,2.936 76.637,2.696 75.544,2.696 C74.259,2.696 73.25,3.102 72.521,3.911 C71.791,4.722 71.425,5.855 71.425,7.311 C71.425,8.601 71.756,9.652 72.417,10.463 C73.078,11.273 74.11,11.678 75.511,11.678 C76.914,11.678 77.973,11.192 78.686,10.221 C79.135,9.619 79.384,8.98 79.438,8.305 L77.113,8.305 C77.066,8.752 76.93,9.115 76.705,9.395 C76.481,9.675 76.102,9.815 75.568,9.815 C74.815,9.815 74.302,9.464 74.03,8.756 C73.88,8.379 73.805,7.879 73.805,7.257 C73.805,6.605 73.881,6.082 74.03,5.687 C74.313,4.945 74.84,4.573 75.607,4.573 Z M70.8,2.696 C66.008,2.696 66.292,7.057 66.292,7.057 L66.292,11.487 L68.466,11.487 L68.466,7.332 C68.466,6.652 68.55,6.147 68.716,5.819 C69.014,5.238 69.596,4.946 70.466,4.946 C70.6742187,4.94931236 70.8821431,4.96299599 71.089,4.987 L71.089,2.712 L70.904,2.7 C70.8694215,2.69693679 70.8347116,2.6956018 70.8,2.696 Z M59.89,5.01 C60.195,4.687 60.625,4.526 61.179,4.526 C61.689,4.526 62.116,4.677 62.46,4.984 C62.804,5.288 62.996,5.736 63.035,6.324 L59.314,6.324 C59.392,5.772 59.584,5.334 59.89,5.01 Z M62.813,9.172 C62.721,9.306 62.623,9.422 62.515,9.51 C62.208,9.77 61.79,9.85 61.299,9.85 C60.834,9.85 60.471,9.777 60.141,9.564 C59.599,9.221 59.294,8.641 59.261,7.789 L65.278,7.789 C65.286,7.057 65.263,6.495 65.206,6.104 C65.1197407,5.4773888 64.8949624,4.87786613 64.548,4.349 C64.2017062,3.80268804 63.7066382,3.36659803 63.121,3.092 C62.544,2.828 61.897,2.695 61.179,2.695 C59.967,2.695 58.984,3.088 58.225,3.872 C57.466,4.658 57.085,5.785 57.085,7.255 C57.085,8.825 57.506,9.959 58.347,10.655 C59.1597401,11.3419963 60.1928847,11.7130052 61.257,11.7 C62.588,11.7 63.624,11.287 64.364,10.461 C64.764,10.026 65.013,9.596 65.119,9.172 L62.813,9.172 Z M56.212,11.486 L54.226,11.486 L54.226,6.345 C54.226,5.875 54.076,4.758 52.765,4.758 C51.891,4.758 51.26,5.406 51.26,6.345 L51.26,11.486 L49.271,11.486 L49.271,6.345 C49.271,5.875 49.136,4.758 47.826,4.758 C46.938,4.758 46.32,5.406 46.32,6.345 L46.32,11.486 L44.333,11.486 L44.333,6.394 C44.333,4.271 45.703,2.666 47.826,2.666 C48.88,2.666 49.738,3.121 50.296,3.851 C50.8933562,3.09780559 51.8036935,2.66088794 52.765,2.666 C54.934,2.666 56.212,4.206 56.212,6.394 L56.212,11.486 Z M93.557,9.142 C93.239,9.61 92.773,9.844 92.163,9.844 C91.55,9.844 91.095,9.608 90.795,9.138 C90.495,8.668 90.345,7.983 90.345,7.199 C90.345,6.471 90.491,5.863 90.787,5.372 C91.082,4.882 91.546,4.636 92.177,4.636 C92.592,4.636 92.955,4.771 93.27,5.04 C93.78,5.488 94.034,6.289 94.034,7.327 C94.034,8.07 93.874,8.675 93.557,9.142 Z M96.165,0.011 C96.165,0.011 93.975,-0.229 93.975,1.578 L93.973,3.973 C93.7421962,3.58492007 93.4162661,3.26208752 93.026,3.035 C92.6198107,2.80423416 92.1590927,2.68680978 91.692,2.695 C90.605,2.695 89.74,3.111 89.089,3.942 C88.439,4.774 88.116,5.972 88.116,7.42 C88.116,8.677 88.446,9.708 89.106,10.51 C89.765,11.312 91.057,11.663 92.206,11.663 C96.21,11.663 96.163,8.134 96.163,8.134 L96.165,0.011 Z M84.129,18.044 C84.432,17.723 84.858,17.562 85.406,17.562 C85.911,17.562 86.334,17.713 86.676,18.017 C87.016,18.318 87.207,18.762 87.246,19.347 L83.558,19.347 C83.636,18.798 83.826,18.364 84.128,18.044 L84.129,18.044 Z M87.026,22.169 C86.936,22.302 86.836,22.416 86.73,22.505 C86.425,22.761 85.996,22.857 85.51,22.857 C85.05,22.857 84.69,22.787 84.363,22.574 C83.824,22.234 83.539,21.643 83.506,20.798 L89.47,20.798 C89.478,20.072 89.455,19.515 89.398,19.128 C89.3122531,18.5068606 89.0895523,17.9125365 88.746,17.388 C88.373,16.82 87.901,16.405 87.331,16.142 C86.76,15.879 86.118,15.748 85.406,15.748 C84.205,15.748 83.23,16.138 82.477,16.915 C81.727,17.695 81.35,18.81 81.35,20.268 C81.35,21.825 81.766,22.949 82.6,23.639 C83.4057275,24.319465 84.4294478,24.6872092 85.484,24.675 C86.803,24.675 87.83,24.265 88.562,23.446 C88.958,23.016 89.207,22.589 89.312,22.169 L87.026,22.169 Z M72.98,22.15 C72.68,22.62 72.224,22.854 71.613,22.854 C71.001,22.854 70.535,22.622 70.217,22.154 C69.899,21.687 69.74,21.082 69.74,20.338 C69.74,19.3 69.995,18.558 70.506,18.11 C70.819,17.841 71.183,17.705 71.596,17.705 C72.228,17.705 72.693,17.951 72.987,18.442 C73.283,18.932 73.431,19.542 73.431,20.268 C73.431,21.052 73.281,21.679 72.981,22.15 L72.98,22.15 Z M72.082,15.767 C71.582,15.767 71.137,15.879 70.748,16.105 C70.357352,16.3324674 70.0313594,16.6560504 69.801,17.045 L69.801,13.022 C69.801,13.022 67.611,12.799 67.611,14.629 L67.611,21.145 C67.611,21.145 67.566,24.675 71.569,24.675 C72.717,24.675 74.01,24.323 74.67,23.521 C75.329,22.719 75.658,21.689 75.658,20.431 C75.658,18.983 75.334,17.843 74.684,17.013 C74.036,16.181 73.168,15.767 72.082,15.767 Z M80.934,15.756 C80.9000323,15.7541021 80.8660205,15.7531018 80.832,15.753 C76.039,15.753 76.323,20.114 76.323,20.114 L76.323,24.475 L78.498,24.475 L78.498,20.388 C78.498,19.708 78.581,19.203 78.748,18.876 C79.045,18.295 79.629,18.003 80.498,18.003 C80.565,18.003 80.65,18.006 80.756,18.013 C80.863,18.017 80.984,18.026 81.12,18.043 L81.12,15.768 C81.023,15.762 80.962,15.759 80.934,15.756 Z M60.115,14.622 L60.115,24.459 L62.155,24.459 L62.155,13.017 C62.155,13.017 60.115,12.933 60.115,14.622 Z M63.822,15.226 L66.007,15.226 L66.007,13.002 L63.822,13.002 L63.822,15.226 Z M63.822,24.475 L66.01,24.475 L66.01,15.985 L63.822,15.985 L63.822,24.475 Z" id="Shape" fill="#565B6D" fill-rule="nonzero"></path>
        </g>
    </g>
</svg>