<?xml version="1.0" encoding="UTF-8"?>
<svg width="116px" height="18px" viewBox="0 0 116 18" version="1.1" xmlns="http://www.w3.org/2000/svg" xmlns:xlink="http://www.w3.org/1999/xlink">
    <!-- Generator: Sketch 51.2 (57519) - http://www.bohemiancoding.com/sketch -->
    <title>Group</title>
    <desc>Created with Sketch.</desc>
    <defs></defs>
    <g id="Page-1" stroke="none" stroke-width="1" fill="none" fill-rule="evenodd">
        <g id="Group" transform="translate(-1.000000, -5.000000)">
            <rect id="Rectangle-2" x="0" y="0" width="119" height="29"></rect>
            <path d="M3.51,6.547 L7.51,16.732 L11.68,5.8 L15.68,16.732 L19.918,6.547 L22.448,6.547 L15.577,22.776 L11.646,11.946 L7.509,22.776 L0.98,6.546 L3.51,6.547 Z M30.921,14.22 C30.921,12.078 31.696,10.208 33.277,8.678 C34.825,7.148 36.71,6.366 38.864,6.366 C41.018,6.366 42.869,7.148 44.417,8.712 C45.965,10.276 46.739,12.146 46.739,14.322 C46.739,16.532 45.965,18.368 44.417,19.898 C42.869,21.428 40.984,22.21 38.763,22.21 C36.811,22.21 35.061,21.53 33.513,20.17 C31.796,18.674 30.921,16.668 30.921,14.22 Z M33.244,14.254 C33.244,15.954 33.816,17.314 34.926,18.402 C36.037,19.49 37.316,20.034 38.796,20.034 C40.379,20.034 41.725,19.49 42.802,18.368 C43.879,17.246 44.451,15.886 44.451,14.288 C44.451,12.656 43.912,11.296 42.835,10.208 C41.758,9.086 40.445,8.542 38.865,8.542 C37.282,8.542 35.97,9.086 34.893,10.208 C33.783,11.296 33.243,12.656 33.243,14.254 L33.244,14.254 Z M61.473,6.366 L61.473,19.466 L65.947,19.466 L65.947,21.644 L59.167,21.644 L59.167,6.366 L61.473,6.366 Z M78.94,14.22 C78.94,12.078 79.716,10.208 81.267,8.678 C82.819,7.148 84.707,6.366 86.867,6.366 C89.025,6.366 90.88,7.148 92.431,8.712 C93.983,10.276 94.758,12.146 94.758,14.322 C94.758,16.532 93.983,18.368 92.431,19.898 C90.88,21.428 88.991,22.21 86.765,22.21 C84.809,22.21 83.055,21.53 81.504,20.17 C79.784,18.674 78.94,16.668 78.94,14.22 Z M81.234,14.254 C81.234,15.954 81.807,17.314 82.92,18.402 C84.033,19.49 85.315,20.034 86.799,20.034 C88.384,20.034 89.733,19.49 90.812,18.368 C91.892,17.246 92.465,15.886 92.465,14.288 C92.465,12.656 91.925,11.296 90.846,10.208 C89.766,9.086 88.451,8.542 86.866,8.542 C85.281,8.542 83.966,9.086 82.886,10.208 C81.807,11.296 81.234,12.656 81.234,14.254 Z M109.639,13.648 L105.529,6.366 L108.102,6.366 L110.942,11.538 L113.983,6.366 L116.557,6.366 L112.246,13.648 L116.791,21.644 L114.251,21.644 L110.909,15.791 L107.5,21.644 L104.927,21.644 L109.639,13.648 Z" id="Shape" fill="#565B6D" fill-rule="nonzero"></path>
        </g>
    </g>
</svg>